<svg width="2294" height="775" viewBox="0 0 2294 775" fill="none" xmlns="http://www.w3.org/2000/svg">
  <path
    d="M0 0.280029C0 0.280029 0 74.05 0 119.54C0 279.88 23.43 267.57 26.27 372.67C28.91 470.6 -20.55 586.46 56.31 586.46C139.13 586.46 81.05 462.78 81.83 359.37C82.45 276.94 148.5 264.65 175.77 305.95C203.04 347.25 196.55 443.35 262.14 443.35C327.73 443.35 292.06 352.32 376.12 374.44C409.69 383.27 409.99 448.87 411.39 480.45C413.63 531.1 390.69 599.98 454.26 598.6C516.14 597.25 488.14 531.12 494.43 483.99C499.22 448.09 511.04 416.85 531.6 416.85C586.37 416.85 630.37 473.22 784.18 473.22C929.11 473.22 1010.14 351.63 1095.23 430.99C1164.58 495.67 1191.87 359.06 1273.68 340.88C1355.5 322.7 1485.94 460.43 1552.85 484C1643.57 515.96 1497.78 774.54 1620.16 774.54C1740.14 774.54 1604.09 512.27 1660.63 489.3C1701.12 472.85 1846.15 292.29 1878.8 441.2C1900.37 539.6 2045.47 544.23 2060.62 413.93C2065.49 372.01 2087.89 283.63 2139.41 298.78C2190.93 313.93 2164.2 416.86 2231.34 416.86C2284.35 416.86 2293.96 245.61 2293.96 126.48C2293.96 56.03 2293.96 0.290039 2293.96 0.290039H0V0.280029Z"
    fill="#FFBFF4" />
</svg>