<svg viewBox="0 0 2296 941" fill="none" xmlns="http://www.w3.org/2000/svg">
  <path
    d="M0 0C0 0 21.6807 245.772 26.2708 452.592C28.9109 571.613 -10.4203 712.207 56.3117 712.425C146.855 712.717 81.0525 562.109 81.8325 436.427C82.4526 336.244 148.505 321.307 175.775 371.502C203.046 421.697 208.056 538.494 273.648 538.494C339.241 538.494 292.069 427.859 376.132 454.743C409.703 465.474 403.003 545.203 404.403 583.584C406.643 645.143 379.702 731.288 443.274 729.611C505.156 727.97 481.155 645.167 487.445 587.887C492.235 544.255 511.056 506.287 531.616 506.287C586.388 506.287 584.668 574.748 810.795 581.445C955.68 585.735 1009.51 427.895 1095.27 523.46C1162.21 598.047 1191.92 436.038 1273.73 413.943C1355.55 391.847 1486 559.24 1552.91 587.887C1643.63 626.73 1492.84 941.109 1615.22 941C1726.21 940.903 1604.15 622.245 1660.69 594.328C1701.18 574.335 1846.22 354.888 1878.87 535.869C1900.44 655.461 2045.54 661.088 2060.69 502.726C2065.56 451.777 2087.96 344.363 2139.49 362.776C2191.01 381.189 2149.6 524.699 2231.42 506.287C2313.24 487.874 2294.04 0.012147 2294.04 0.012147H0V0Z"
    fill="#FFBFF4" />
</svg>