<?xml version="1.0" standalone="no"?>
<!DOCTYPE svg PUBLIC "-//W3C//DTD SVG 20010904//EN"
 "http://www.w3.org/TR/2001/REC-SVG-20010904/DTD/svg10.dtd">

<svg
  version="1.0"
  xmlns="http://www.w3.org/2000/svg"
  width="6"
  height="6"
  viewBox="0 0 24 24"
  preserveAspectRatio="xMidYMid meet"
  className="inline-block w-6 h-6 stroke-current"
>
  <g transform="translate(-2.75,-2.75) scale(0.015833,-0.015833)">
    <path d="M11499 9148 c-61 -85 -205 -418 -320 -746 l-44 -122 -5385 2 -5386 3
    -76 38 c-128 63 -214 159 -260 291 l-17 51 -1 -55 c-1 -220 171 -429 385 -470
    44 -8 1463 -10 5398 -8 l5338 3 78 210 c99 267 157 407 220 532 56 112 94 163
    121 163 38 0 141 -166 400 -645 316 -586 403 -725 449 -725 49 1 194 155 343
    363 l70 97 942 0 c1028 0 999 -1 1110 58 81 43 161 129 203 218 31 64 37 90
    40 158 l4 81 -24 -56 c-13 -31 -33 -72 -45 -91 -29 -47 -116 -128 -172 -160
    -103 -60 -66 -58 -1104 -59 l-951 0 -97 -132 c-156 -213 -270 -327 -326 -327
    -42 0 -135 150 -422 680 -284 525 -386 690 -426 690 -8 0 -28 -19 -45 -42z"/>
    <path d="M11501 5270 c-63 -88 -178 -352 -306 -705 l-62 -170 -5304 -3 c-3535
    -2 -5332 1 -5389 8 -197 23 -356 155 -416 345 l-13 40 0 -55 c-2 -120 57 -258
    146 -346 57 -56 152 -108 229 -124 34 -7 1708 -9 5397 -8 l5348 3 78 210 c99
    267 157 407 220 532 56 112 94 163 122 163 38 0 127 -145 432 -706 223 -413
    312 -565 366 -625 32 -37 41 -41 66 -35 42 11 175 152 295 314 l105 142 946 0
    c1031 0 986 -2 1103 57 77 39 160 129 203 219 31 65 37 89 40 158 3 78 3 80
    -11 45 -44 -113 -128 -216 -220 -268 -121 -69 -60 -65 -1113 -69 l-951 -3
    -102 -135 c-110 -147 -228 -277 -272 -300 -15 -8 -36 -14 -48 -14 -42 0 -142
    163 -450 735 -251 465 -357 635 -396 635 -8 0 -27 -18 -43 -40z"/>
    <path d="M11499 1488 c-62 -85 -202 -411 -321 -745 l-43 -123 -5361 0 c-5342
    0 -5362 0 -5427 20 -84 26 -178 89 -229 154 -42 52 -92 150 -101 196 -2 14 -5
    -2 -6 -35 -5 -220 164 -430 381 -474 38 -8 1590 -10 5397 -9 l5344 3 10 30
    c30 94 175 470 227 590 66 151 114 237 152 272 22 21 26 21 46 8 44 -32 159
    -224 407 -685 236 -438 343 -619 394 -664 17 -16 25 -17 48 -7 61 26 172 146
    317 344 l79 107 933 0 c641 0 950 3 986 11 141 29 267 128 332 260 32 65 38
    89 42 160 l5 84 -23 -55 c-53 -124 -136 -211 -256 -268 l-77 -37 -972 -5 -972
    -5 -57 -80 c-125 -174 -251 -319 -310 -356 -22 -13 -43 -19 -58 -15 -45 11
    -135 159 -426 696 -282 520 -375 670 -416 670 -8 0 -28 -19 -45 -42z"/>
    </g>
</svg>
