<svg width="212" height="39" viewBox="0 0 212 39" fill="none" xmlns="http://www.w3.org/2000/svg">
  <path
    d="M2.4668 0.0933311H11.7081V10.736V13.7822V17.336V29.2425H22.8349V38.0245H2.4668V17.336V13.7822V10.736V0.0933311Z"
    fill="#FF15EC" />
  <path
    d="M28.5341 0.23125H37.8214V10.7359V13.7822V17.336V38.0245H28.5341V17.336V13.7822V10.7359V0.23125Z"
    fill="#FF15EC" />
  <path
    d="M45.7743 0.185281H58.0504L62.0139 10.736L63.1582 13.7822L64.4933 17.336L67.7055 25.8864L70.8718 17.336L72.1875 13.7822L73.3158 10.736L77.2227 0.185281H89.4068V10.736V13.7822V17.336V38.0245H80.1655V17.336V15.8635L79.6064 17.336L71.7512 38.0245H63.5218L55.6786 17.336L55.0156 15.5872V17.336V38.0245H45.7743V17.336V13.7822V10.736V0.185281Z"
    fill="#FF15EC" />
  <path
    d="M97.5873 0.23125H106.875V10.7359V13.7822V17.336V38.0245H97.5873V17.336V13.7822V10.7359V0.23125Z"
    fill="#FF15EC" />
  <path
    d="M114.827 0.139305H124.161L129.738 10.736L131.341 13.7822L133.211 17.336L135.195 21.1046V17.336V13.7822V10.736V0.139305H144.483V10.736V13.7822V17.336V38.0245H135.287L124.359 17.336L124.115 16.8749V17.336V38.0245H114.827V17.336V13.7822V10.736V0.139305Z"
    fill="#FF15EC" />
  <path
    d="M172.664 26.1165L169.774 17.3363L168.604 13.782L167.745 11.1734L166.886 13.782L165.716 17.3358L162.825 26.1165H172.664ZM175.055 33.3344H160.434L158.871 38.0243H149.17L156.711 17.3358L158.007 13.782L159.117 10.7362L162.963 0.185037H172.526L176.308 10.7362L177.4 13.782L178.674 17.3358L186.089 38.0243H176.619L175.055 33.3344Z"
    fill="#FF15EC" />
  <path
    d="M190.823 0.0933311H200.065V10.736V13.7822V17.336V29.2425H211.191V38.0245H190.823V17.336V13.7822V10.736V0.0933311Z"
    fill="#FF15EC" />
  <path
    d="M0.172035 0.0929649H9.41335V10.7356V13.7819V17.3357V29.2421H20.5401V38.0242H0.172035V17.3357V13.7819V10.7356V0.0929649Z"
    fill="#04F9F9" />
  <path
    d="M26.2397 0.23125H35.527V10.7359V13.7822V17.336V38.0245H26.2397V17.336V13.7822V10.7359V0.23125Z"
    fill="#04F9F9" />
  <path
    d="M43.4799 0.185281H55.756L59.7194 10.736L60.8637 13.7822L62.1988 17.336L66.5604 25.8864L66.5498 22.8107L68.5773 17.336L69.8931 13.7822L71.0213 10.736L74.9282 0.185281H87.1124V10.736V13.7822V17.336V38.0245H77.871V21.9068L79.0204 15.8635H77.871L77.312 17.336L69.4568 38.0245H61.2274L55.0158 21.6397L53.8705 15.5872H52.7212V17.336V38.0245H43.4799V17.336V13.7822V10.736V0.185281Z"
    fill="#04F9F9" />
  <path
    d="M95.2931 0.23125H104.58V10.7359V13.7822V17.336V38.0245H95.2931V17.336V13.7822V10.7359V0.23125Z"
    fill="#04F9F9" />
  <path
    d="M112.533 0.139305H121.867L127.444 10.736L129.047 13.7822L130.917 17.336L134.05 21.1046L132.901 16.7453V13.7822V10.736V0.139305H142.189V10.736V13.7822V17.336V38.0245H132.993L124.115 21.2181L122.97 16.8749H121.821V17.336V38.0245H112.533V17.336V13.7822V10.736V0.139305Z"
    fill="#04F9F9" />
  <path
    d="M170.37 26.1165L167.479 17.3363L166.597 14.6582L166.6 11.1734H165.45L164.591 13.782L163.421 17.3358L160.531 26.1165H170.37ZM172.761 33.3344H158.14L156.577 38.0243H146.875L154.417 17.3358L155.712 13.782L156.823 10.7362L160.668 0.185037H170.232L174.013 10.7362L175.105 13.782L176.379 17.3358L183.795 38.0243H174.324L172.761 33.3344Z"
    fill="#04F9F9" />
  <path
    d="M188.529 0.0933311H197.77V10.736V13.7822V17.336V29.2425H208.897V38.0245H188.529V17.336V13.7822V10.736V0.0933311Z"
    fill="#04F9F9" />
  <path
    d="M1.32169 0.0933311H10.563V10.736V13.7822V17.336V29.2425H21.6897V38.0245H1.32169V17.336V13.7822V10.736V0.0933311Z"
    fill="#FFF5E6" />
  <path
    d="M27.3892 0.23125H36.6765V10.7359V13.7822V17.336V38.0245H27.3892V17.336V13.7822V10.7359V0.23125Z"
    fill="#FFF5E6" />
  <path
    d="M44.6292 0.185281H56.9053L60.8687 10.736L62.013 13.7822L63.3481 17.336L66.5604 25.8864L69.7266 17.336L71.0424 13.7822L72.1706 10.736L76.0775 0.185281H88.2617V10.736V13.7822V17.336V38.0245H79.0204V17.336V15.8635L78.4613 17.336L70.6061 38.0245H62.3767L54.5335 17.336L53.8705 15.5872V17.336V38.0245H44.6292V17.336V13.7822V10.736V0.185281Z"
    fill="#FFF5E6" />
  <path
    d="M96.4424 0.23125H105.73V10.7359V13.7822V17.336V38.0245H96.4424V17.336V13.7822V10.7359V0.23125Z"
    fill="#FFF5E6" />
  <path
    d="M113.682 0.139305H123.016L128.593 10.736L130.196 13.7822L132.066 17.336L134.05 21.1046V17.336V13.7822V10.736V0.139305H143.338V10.736V13.7822V17.336V38.0245H134.142L123.214 17.336L122.97 16.8749V17.336V38.0245H113.682V17.336V13.7822V10.736V0.139305Z"
    fill="#FFF5E6" />
  <path
    d="M171.519 26.1165L168.628 17.3363L167.458 13.782L166.599 11.1734L165.741 13.782L164.571 17.3358L161.68 26.1165H171.519ZM173.91 33.3344H159.289L157.726 38.0243H148.024L155.566 17.3358L156.862 13.782L157.972 10.7362L161.818 0.185037H171.381L175.163 10.7362L176.255 13.782L177.529 17.3358L184.944 38.0243H175.473L173.91 33.3344Z"
    fill="#FFF5E6" />
  <path
    d="M189.678 0.0933311H198.92V10.736V13.7822V17.336V29.2425H210.046V38.0245H189.678V17.336V13.7822V10.736V0.0933311Z"
    fill="#FFF5E6" />
</svg>