{
    "asset" : {
        "generator" : "Khronos glTF Blender I/O v1.4.40",
        "version" : "2.0"
    },
    "scene" : 0,
    "scenes" : [
        {
            "name" : "Scene",
            "nodes" : [
                0
            ]
        }
    ],
    "nodes" : [
        {
            "mesh" : 0,
            "name" : "BezierCurve.004",
            "scale" : [
                8.281929016113281,
                8.281929016113281,
                8.281929016113281
            ],
            "translation" : [
                -4.757645130157471,
                23.54220199584961,
                -0.750194251537323
            ]
        }
    ],
    "materials" : [
        {
            "doubleSided" : true,
            "name" : "scratched plastic",
            "pbrMetallicRoughness" : {
                "metallicFactor" : 0
            }
        }
    ],
    "meshes" : [
        {
            "name" : "BezierCurve.003",
            "primitives" : [
                {
                    "attributes" : {
                        "POSITION" : 0,
                        "NORMAL" : 1,
                        "TEXCOORD_0" : 2
                    },
                    "indices" : 3,
                    "material" : 0
                }
            ]
        }
    ],
    "accessors" : [
        {
            "bufferView" : 0,
            "componentType" : 5126,
            "count" : 21789,
            "max" : [
                3.1526286602020264,
                2.3876664638519287,
                0.43070417642593384
            ],
            "min" : [
                -2.2301840782165527,
                -3.009970188140869,
                -1.26166570186615
            ],
            "type" : "VEC3"
        },
        {
            "bufferView" : 1,
            "componentType" : 5126,
            "count" : 21789,
            "type" : "VEC3"
        },
        {
            "bufferView" : 2,
            "componentType" : 5126,
            "count" : 21789,
            "type" : "VEC2"
        },
        {
            "bufferView" : 3,
            "componentType" : 5123,
            "count" : 114732,
            "type" : "SCALAR"
        }
    ],
    "bufferViews" : [
        {
            "buffer" : 0,
            "byteLength" : 261468,
            "byteOffset" : 0
        },
        {
            "buffer" : 0,
            "byteLength" : 261468,
            "byteOffset" : 261468
        },
        {
            "buffer" : 0,
            "byteLength" : 174312,
            "byteOffset" : 522936
        },
        {
            "buffer" : 0,
            "byteLength" : 229464,
            "byteOffset" : 697248
        }
    ],
    "buffers" : [
        {
            "byteLength" : 926712,
            "uri" : "data:application/octet-stream;base64,"
        }
    ]
}
