<?xml version="1.0" encoding="UTF-8"?><svg id="Layer_1" xmlns="http://www.w3.org/2000/svg" viewBox="0 0 3815 445.89"><defs><style>.cls-1{fill:#ffbff4;}</style></defs><path class="cls-1" d="m3793.63,12.16c-24.77,5.42-46.66,21.33-68.89,34.25-3.49,2.03-6.92,4.18-10.52,6-8.57,4.32-17.1,8.76-25.88,12.62-19.56,8.61-40.03,11.65-61.29,9.49-17.84-1.82-35.2-5.82-52.04-11.89-24-8.66-47.83-17.8-71.78-26.62-36.66-13.51-74.22-23.54-112.84-29.34-32.51-4.88-65.24-6.96-98.09-6.65-13.02.12-26.14.51-39.04,2.15-34.51,4.38-65.83,17.41-94.3,37.54-25.05,17.71-46.21,39.51-65.49,63.3-19.22,23.73-35.95,49.27-53.2,74.44-10.8,15.76-21.96,31.29-33.42,46.58-7.65,10.21-16.57,19.34-26.97,26.84-9.62,6.93-20.15,11.2-32.12,10.97-9.23-.17-18.33-1.38-27.23-4.04-16.1-4.81-30.15-13.43-43.13-23.86-13.66-10.97-26.93-22.45-40.44-33.61-23.5-19.42-48.98-35.29-78.21-44.47-22.72-7.13-46.02-10.11-69.74-10.48-28.87-.46-57.51,1.1-85.58,8.67-18.06,4.87-35.04,12.45-51.9,20.42-18.76,8.87-37.77,17.1-57.78,22.78-24.84,7.05-50.17,11.06-75.84,13.1-27.13,2.15-54.02,1.13-80.55-5.75-24.47-6.34-47.69-16.01-69.99-27.73-37.76-19.84-75.11-40.46-112.72-60.59-40.66-21.76-81.28-43.61-122.17-64.91-30.36-15.82-62.53-25.56-96.35-28.88-175.14-25.18-325.97,99.85-501.12,107.83-41.96,1.91-85.63-4.15-125.08-19.01-37.17-14-67.41-41.62-102.58-59.69-78.87-40.52-196.91,3.11-227.97,89.59-13.69,38.12-16.34,79.83-32.29,117.05s-52.35,70.97-91.84,63.8c-25.58-4.64-45.7-25.46-57.93-48.64-12.23-23.18-18.21-49.1-26.96-73.83-31.89-90.15-110.42-184.95-208.62-197.42-12.9-1.64-26.02-2.03-39.04-2.15-32.85-.31-65.58,1.77-98.09,6.65-38.62,5.8-76.19,15.83-112.84,29.34-23.94,8.82-47.78,17.96-71.78,26.62-16.84,6.07-34.2,10.08-52.04,11.89-21.26,2.16-41.73-.88-61.29-9.49-8.78-3.86-17.31-8.31-25.88-12.62-3.6-1.81-7.03-3.97-10.52-6-22.23-12.92-43.8-27.21-68.89-34.25,0,0-8.29-2.5-21.37-2.4v436.13h21.37c624.55,0,1249.1,0,1873.65,0,632.87,0,1265.74,0,1898.61,0h21.37V9.76c-6.18.04-13.42.66-21.37,2.4Z"/></svg>