<svg width="3819" height="251" viewBox="0 0 3819 251" fill="none" xmlns="http://www.w3.org/2000/svg">
  <path d="M518.38 58.07H479.37V62.44H518.38V58.07Z" fill="#05F9F9" />
  <path d="M421.73 58.24H382.72V61.14H421.73V58.24Z" fill="#05F9F9" />
  <path d="M360.79 59.69H301.06V61.14H360.79V59.69Z" fill="#05F9F9" />
  <path d="M289.31 59.69H257.2V61.14H289.31V59.69Z" fill="#05F9F9" />
  <path d="M553.86 58.07H533.29V60.42H553.86V58.07Z" fill="#05F9F9" />
  <path d="M461.32 57.67H449V60.09H461.32V57.67Z" fill="#05F9F9" />
  <path d="M369.89 56.86H360.79V58.64H369.89V56.86Z" fill="#05F9F9" />
  <path d="M246.53 59.06H240.07V60.33H246.53V59.06Z" fill="#05F9F9" />
  <path d="M232.88 59.87H226.42V61.14H232.88V59.87Z" fill="#05F9F9" />
  <path d="M310.33 65.43H271.32V69.8H310.33V65.43Z" fill="#05F9F9" />
  <path d="M213.68 65.6H174.67V68.5H213.68V65.6Z" fill="#05F9F9" />
  <path d="M152.74 67.05H93.0098V68.5H152.74V67.05Z" fill="#05F9F9" />
  <path d="M425.07 67.05H365.34V68.5H425.07V67.05Z" fill="#05F9F9" />
  <path d="M81.2604 67.05H49.1504V68.5H81.2604V67.05Z" fill="#05F9F9" />
  <path d="M345.81 65.43H325.24V67.78H345.81V65.43Z" fill="#05F9F9" />
  <path d="M253.27 65.03H240.95V67.45H253.27V65.03Z" fill="#05F9F9" />
  <path d="M161.84 64.22H152.74V66H161.84V64.22Z" fill="#05F9F9" />
  <path d="M38.4795 66.41H32.0195V67.68H38.4795V66.41Z" fill="#05F9F9" />
  <path d="M24.8301 176.23H18.3701V177.5H24.8301V176.23Z" fill="#05F9F9" />
  <path d="M1059.02 -8.48999H1035.61V0.960007H1059.02V-8.48999Z" fill="#05F9F9" />
  <path d="M1088.17 -3.77002H1074.15V1.88998H1088.17V-3.77002Z" fill="#05F9F9" />
  <path d="M3523.31 13.27H3478.92V28.25H3523.31V13.27Z" fill="#05F9F9" />
  <path d="M3566.38 18.8H3542.97V28.25H3566.38V18.8Z" fill="#05F9F9" />
  <path d="M3581.5 12.33H3567.48V17.99H3581.5V12.33Z" fill="#05F9F9" />
  <path d="M3388.15 13.27V20.76H3343.75V13.27H3243.04V28.25H3444.46V13.27H3388.15Z" fill="#05F9F9" />
  <path d="M3176.19 24.5V26.38H3109.92V24.5H2959.58V28.25H3260.27V24.5H3176.19Z" fill="#05F9F9" />
  <path d="M1668.83 42.37H1396.81V49H1668.83V42.37Z" fill="#05F9F9" />
  <path d="M960.69 78.32V74.47H779.29V81.1H1051.31V78.32H960.69Z" fill="#05F9F9" />
  <path d="M1156.57 90.4V87.99H1627.57V92.28H920.57V90.4H1156.57Z" fill="#05F9F9" />
  <path d="M607.12 45.55V41.7H1.83984V48.33H909.52V45.55H607.12Z" fill="#05F9F9" />
  <path d="M1696.62 42.37V53.16H1873.86V46.53H2145.89V53.16H2930.87V42.37H1696.62Z" fill="#05F9F9" />
  <path d="M2104.5 167.55V171.46H1927.25V169.05H1655.23V171.46H870.24V167.55H2104.5Z" fill="#05F9F9" />
  <path
    d="M1894.76 77.8H2160.68V75.4H2006.65V67.91H1319.46V66.71H2006.65H2037.39H2656.3V71.43H2863.56V66.71H3047.5V71.82H3095.43V66.71H3619.94H3792.87H3816.84V69.43H3792.87V77.04H3308.34V82.24H2899.76H2006.65H1262.46V80.02H1113.54V77.8H1894.76Z"
    fill="#05F9F9" />
  <path
    d="M1923.14 157.61H1657.23V155.21H1811.25V147.72H2498.45V146.52H1811.25H1780.52H1161.61V151.24H954.35V146.52H770.4V151.62H722.48V146.52H197.97H25.0303H1.07031V149.24H25.0303V156.85H509.56V162.04H918.14H1811.25H2555.44V159.83H2704.36V157.61H1923.14Z"
    fill="#05F9F9" />
  <path
    d="M1968.09 21.51H1696.07V14.88H1853.63V-5.77001H2556.62V-9.08002H1189.06V3.92999H977.04V-9.08002H788.87V4.99998H739.84V-9.08002H1.83984V-1.59001H26.3598V19.4H522.03V33.74H2614.93V27.62H2767.27V21.5H1968.09V21.51ZM1649.33 12.49H1532.83V19.63H1216.45V5.35999H1649.33V12.5V12.49Z"
    fill="#05F9F9" />
  <path d="M3253.11 111.27H3297.5V108.61H3253.11V111.27Z" fill="#05F9F9" />
  <path d="M3210.04 111.27H3233.45V109.59H3210.04V111.27Z" fill="#05F9F9" />
  <path d="M3194.92 109.45H3208.94V108.45H3194.92V109.45Z" fill="#05F9F9" />
  <path d="M2759.66 119.47H2783.07V117.79H2759.66V119.47Z" fill="#05F9F9" />
  <path d="M2730.51 119.63H2744.53V118.63H2730.51V119.63Z" fill="#05F9F9" />
  <path d="M1837.39 113.24H1860.8V111.56H1837.39V113.24Z" fill="#05F9F9" />
  <path d="M1669.35 116.35H1680.14V115.58H1669.35V116.35Z" fill="#05F9F9" />
  <path d="M2451.94 110.3H2465.96V109.3H2451.94V110.3Z" fill="#05F9F9" />
  <path d="M2476.24 109.84H2490.26V109.29H2476.24V109.84Z" fill="#05F9F9" />
  <path d="M3388.27 108.61V109.94H3432.67V108.61H3533.38V111.27H3331.96V108.61H3388.27Z"
    fill="#05F9F9" />
  <path d="M3600.23 110.61V110.94H3666.5V110.61H3816.84V111.27H3516.15V110.61H3600.23Z"
    fill="#05F9F9" />
  <path d="M295.36 124.3H339.75V121.64H295.36V124.3Z" fill="#05F9F9" />
  <path d="M252.3 124.3H275.71V122.62H252.3V124.3Z" fill="#05F9F9" />
  <path d="M237.17 122.49H251.19V121.49H237.17V122.49Z" fill="#05F9F9" />
  <path d="M430.53 121.65V122.98H474.92V121.65H575.64V124.3H374.21V121.65H430.53Z" fill="#05F9F9" />
  <path d="M642.48 123.64V123.97H708.75V123.64H859.1V124.3H558.41V123.64H642.48Z" fill="#05F9F9" />
  <path d="M2149.84 127.98L2421.86 127.98V126.81L2149.84 126.81V127.98Z" fill="#05F9F9" />
  <path d="M2117.38 117.33L2389.4 117.33V117.05L2117.38 117.05V117.33Z" fill="#05F9F9" />
  <path d="M1308.37 115.58V114.99H1580.39V115.58H1663.58V116.3H878.29V116.75H840.53V115.58H1308.37Z"
    fill="#05F9F9" />
  <path d="M2857.99 133.18V132.5H3039.39V133.67H2767.37V133.18H2857.99Z" fill="#05F9F9" />
  <path d="M3211.55 127.37V126.69H3816.84V127.86H2909.16V127.37H3211.55Z" fill="#05F9F9" />
  <path d="M2122.06 126.81V128.72H1944.81V127.54H1672.79V128.72H887.81V126.81H2122.06Z"
    fill="#05F9F9" />
  <path d="M1212.06 117.69H1167.67V118.65H1212.06V117.69Z" fill="#05F9F9" />
  <path d="M2364.24 118.24H2092.22V118.67H2364.24V118.24Z" fill="#05F9F9" />
  <path d="M1723.9 107.25V107.94H1901.15V107.52H2173.17V107.94H2958.15V107.25H1723.9Z"
    fill="#05F9F9" />
  <path
    d="M1923.91 133.09H1658V132.66H1812.02V131.33H2499.22V131.12H1812.02H1781.29H1162.38V131.96H955.12V131.12H771.18V132.02H723.25V131.12H198.74H25.7998H1.83984V131.6H25.7998V132.95H510.34V133.87H918.91H1812.02H2556.21V133.48H2705.14V133.09H1923.91Z"
    fill="#05F9F9" />
  <path
    d="M1048.41 117.69V118.17H1092.8V117.69H1133.22V118.65H939.56V118.17H563.15V118.65H430.46V117.69H1048.41Z"
    fill="#05F9F9" />
  <path
    d="M532.5 114.72H713.13V113.54H608.5V109.88H141.71V109.3H608.5H629.38H1049.79V111.6H1190.58V109.3H1315.52V111.79H1348.08V109.3H1704.37H1821.83H1826.13H1838.11H2435.7V110.06H1838.11V110.62H1821.83V114.34H1716.59V111.39H1406.5V113.35H828.73V116.89H608.5H103V115.8H1.83984V114.72H532.5Z"
    fill="#05F9F9" />
  <path
    d="M1051.41 123.11V124.19H1203.75V125.27H1965.04H2878.68H3296.65V122.73H3792.32V119.01H3816.84V117.68H3792.32H3615.41H3078.85V120.18H3029.82V117.68H2841.65V119.99H2629.63V117.68H1996.5H1965.06H1262.07V118.27H1965.06V121.93H2122.62V123.1H1850.6H1051.42L1051.41 123.11ZM2169.35 120.25H2285.85H2602.23V122.78H2285.85V121.52H2169.35V120.26V120.25Z"
    fill="#05F9F9" />
  <path d="M442.25 67.05H435.48V69.09H442.25V67.05Z" fill="#05F9F9" />
  <path d="M455.68 65.6H450.21V67.05H455.68V65.6Z" fill="#05F9F9" />
  <path d="M474.92 69.8H468.46V70.88H474.92V69.8Z" fill="#05F9F9" />
  <path
    d="M3816.84 228.77H3363.57V217.75H3676.21V183.41H3816.84V177.9H2357.54V199.53H1936.84V177.9H1563.46V201.31H1466.17V177.9H1.83984V190.36H50.4798V225.26H1034V249.11H3816.84V228.77ZM3270.82 213.77H3039.65V225.63H2411.88V201.91H3270.82V213.77Z"
    fill="#05F9F9" />
  <path d="M518.2 58.44H479.19V62.81H518.2V58.44Z" fill="#FF15EC" />
  <path d="M421.54 58.61H382.53V61.51H421.54V58.61Z" fill="#FF15EC" />
  <path d="M360.61 60.06H300.88V61.51H360.61V60.06Z" fill="#FF15EC" />
  <path d="M289.12 60.06H257.01V61.51H289.12V60.06Z" fill="#FF15EC" />
  <path d="M553.68 58.44H533.11V60.79H553.68V58.44Z" fill="#FF15EC" />
  <path d="M461.13 58.04H448.81V60.46H461.13V58.04Z" fill="#FF15EC" />
  <path d="M369.7 57.23H360.6V59.01H369.7V57.23Z" fill="#FF15EC" />
  <path d="M246.35 59.42H239.89V60.69H246.35V59.42Z" fill="#FF15EC" />
  <path d="M232.7 60.24H226.24V61.51H232.7V60.24Z" fill="#FF15EC" />
  <path d="M310.15 65.8H271.14V70.17H310.15V65.8Z" fill="#FF15EC" />
  <path d="M213.5 65.97H174.49V68.87H213.5V65.97Z" fill="#FF15EC" />
  <path d="M152.56 67.42H92.8301V68.87H152.56V67.42Z" fill="#FF15EC" />
  <path d="M424.88 67.42H365.15V68.87H424.88V67.42Z" fill="#FF15EC" />
  <path d="M81.0797 67.42H48.9697V68.87H81.0797V67.42Z" fill="#FF15EC" />
  <path d="M345.63 65.8H325.06V68.15H345.63V65.8Z" fill="#FF15EC" />
  <path d="M253.08 65.4H240.76V67.82H253.08V65.4Z" fill="#FF15EC" />
  <path d="M161.65 64.59H152.55V66.37H161.65V64.59Z" fill="#FF15EC" />
  <path d="M38.2998 66.78H31.8398V68.05H38.2998V66.78Z" fill="#FF15EC" />
  <path d="M24.6504 176.6H18.1904V177.87H24.6504V176.6Z" fill="#FF15EC" />
  <path d="M1058.84 -8.12H1035.43V1.33001H1058.84V-8.12Z" fill="#FF15EC" />
  <path d="M1087.99 -3.40002H1073.97V2.25998H1087.99V-3.40002Z" fill="#FF15EC" />
  <path d="M3523.12 13.64H3478.73V28.62H3523.12V13.64Z" fill="#FF15EC" />
  <path d="M3566.19 19.17H3542.78V28.62H3566.19V19.17Z" fill="#FF15EC" />
  <path d="M3581.32 12.7H3567.3V18.36H3581.32V12.7Z" fill="#FF15EC" />
  <path d="M3387.96 13.64V21.13H3343.57V13.64H3242.86V28.62H3444.28V13.64H3387.96Z" fill="#FF15EC" />
  <path d="M3176.01 24.87V26.75H3109.74V24.87H2959.4V28.62H3260.08V24.87H3176.01Z" fill="#FF15EC" />
  <path d="M1668.64 42.74H1396.62V49.37H1668.64V42.74Z" fill="#FF15EC" />
  <path d="M960.5 78.69V74.84H779.1V81.47H1051.13V78.69H960.5Z" fill="#FF15EC" />
  <path d="M1156.39 90.77V88.36H1627.39V92.65H920.39V90.77H1156.39Z" fill="#FF15EC" />
  <path d="M606.94 45.92V42.07H1.65039V48.7H909.33V45.92H606.94Z" fill="#FF15EC" />
  <path d="M1696.43 42.74V53.53H1873.68V46.9H2145.7V53.53H2930.68V42.74H1696.43Z" fill="#FF15EC" />
  <path d="M2104.31 167.92V171.83H1927.06V169.42H1655.04V171.83H870.06V167.92H2104.31Z"
    fill="#FF15EC" />
  <path
    d="M1894.58 78.17H2160.49V75.77H2006.47V68.28H1319.28V67.08H2006.47H2037.21H2656.11V71.8H2863.37V67.08H3047.32V72.19H3095.25V67.08H3619.76H3792.69H3816.65V69.8H3792.69V77.41H3308.16V82.61H2899.58H2006.47H1262.28V80.39H1113.36V78.17H1894.58Z"
    fill="#FF15EC" />
  <path
    d="M1922.96 157.98H1657.05V155.58H1811.07V148.09H2498.26V146.89H1811.07H1780.33H1161.43V151.61H954.17V146.89H770.22V151.99H722.29V146.89H197.78H24.8499H0.879883V149.61H24.8499V157.21H509.38V162.41H917.96H1811.07H2555.26V160.2H2704.18V157.98H1922.96Z"
    fill="#FF15EC" />
  <path
    d="M1967.9 21.88H1695.88V15.25H1853.44V-5.40002H2556.43V-8.71002H1188.87V4.29998H976.85V-8.71002H788.68V5.36998H739.65V-8.71002H1.65039V-1.22002H26.1704V19.77H521.84V34.11H2614.74V27.99H2767.08V21.87H1967.9V21.88ZM1649.14 12.86H1532.64V20H1216.26V5.72998H1649.14V12.87V12.86Z"
    fill="#FF15EC" />
  <path d="M3252.93 111.64H3297.32V108.98H3252.93V111.64Z" fill="#FF15EC" />
  <path d="M3209.85 111.64H3233.26V109.96H3209.85V111.64Z" fill="#FF15EC" />
  <path d="M3194.73 109.82H3208.75V108.82H3194.73V109.82Z" fill="#FF15EC" />
  <path d="M2759.47 119.84H2782.88V118.16H2759.47V119.84Z" fill="#FF15EC" />
  <path d="M2730.32 120H2744.34V119H2730.32V120Z" fill="#FF15EC" />
  <path d="M1837.22 113.61H1860.63V111.93H1837.22V113.61Z" fill="#FF15EC" />
  <path d="M1669.17 116.72H1679.96V115.95H1669.17V116.72Z" fill="#FF15EC" />
  <path d="M2451.76 110.67H2465.78V109.67H2451.76V110.67Z" fill="#FF15EC" />
  <path d="M2476.05 110.21H2490.07V109.66H2476.05V110.21Z" fill="#FF15EC" />
  <path d="M3388.09 108.98V110.31H3432.48V108.98H3533.19V111.64H3331.77V108.98H3388.09Z"
    fill="#FF15EC" />
  <path d="M3600.04 110.98V111.31H3666.31V110.98H3816.65V111.64H3515.97V110.98H3600.04Z"
    fill="#FF15EC" />
  <path d="M295.19 124.67H339.58V122.01H295.19V124.67Z" fill="#FF15EC" />
  <path d="M252.12 124.67H275.53V122.99H252.12V124.67Z" fill="#FF15EC" />
  <path d="M236.99 122.86H251.01V121.86H236.99V122.86Z" fill="#FF15EC" />
  <path d="M430.35 122.02V123.35H474.74V122.02H575.45V124.67H374.03V122.02H430.35Z" fill="#FF15EC" />
  <path d="M642.3 124.01V124.34H708.57V124.01H858.91V124.67H558.23V124.01H642.3Z" fill="#FF15EC" />
  <path d="M2149.67 128.35L2421.69 128.35V127.18L2149.67 127.18V128.35Z" fill="#FF15EC" />
  <path d="M2117.19 117.7L2389.21 117.7V117.42L2117.19 117.42V117.7Z" fill="#FF15EC" />
  <path d="M1308.18 115.95V115.36H1580.21V115.95H1663.4V116.67H878.11V117.12H840.34V115.95H1308.18Z"
    fill="#FF15EC" />
  <path d="M2857.81 133.55V132.87H3039.21V134.04H2767.18V133.55H2857.81Z" fill="#FF15EC" />
  <path d="M3211.37 127.74V127.06H3816.65V128.23H2908.97V127.74H3211.37Z" fill="#FF15EC" />
  <path d="M2121.88 127.18V129.09H1944.63V127.91H1672.61V129.09H887.62V127.18H2121.88Z"
    fill="#FF15EC" />
  <path d="M1211.88 118.06H1167.49V119.02H1211.88V118.06Z" fill="#FF15EC" />
  <path d="M2364.06 118.61H2092.04V119.04H2364.06V118.61Z" fill="#FF15EC" />
  <path d="M1723.71 107.62V108.31H1900.96V107.89H2172.98V108.31H2957.97V107.62H1723.71Z"
    fill="#FF15EC" />
  <path
    d="M1923.73 133.46H1657.82V133.03H1811.84V131.7H2499.03V131.49H1811.84H1781.1H1162.2V132.33H954.94V131.49H770.99V132.39H723.06V131.49H198.55H25.6204H1.65039V131.97H25.6204V133.32H510.15V134.24H918.73H1811.84H2556.03V133.85H2704.95V133.46H1923.73Z"
    fill="#FF15EC" />
  <path
    d="M1048.23 118.06V118.54H1092.62V118.06H1133.04V119.02H939.37V118.54H562.97V119.02H430.27V118.06H1048.23Z"
    fill="#FF15EC" />
  <path
    d="M532.32 115.09H712.94V113.91H608.32V110.25H141.53V109.67H608.32H629.2H1049.6V111.97H1190.39V109.67H1315.34V112.16H1347.9V109.67H1704.18H1821.65H1825.95H1837.93H2435.52V110.43H1837.93V110.99H1821.65V114.71H1716.4V111.76H1406.32V113.72H828.55V117.26H608.32H102.81V116.17H1.65039V115.09H532.32Z"
    fill="#FF15EC" />
  <path
    d="M1051.23 123.48V124.56H1203.57V125.64H1964.86H2878.5H3296.47V123.1H3792.14V119.38H3816.66V118.05H3792.14H3615.23H3078.67V120.55H3029.64V118.05H2841.47V120.36H2629.45V118.05H1996.32H1964.88H1261.89V118.64H1964.88V122.3H2122.44V123.47H1850.42H1051.24L1051.23 123.48ZM2169.17 120.62H2285.67H2602.05V123.15H2285.67V121.89H2169.17V120.63V120.62Z"
    fill="#FF15EC" />
  <path d="M442.07 67.42H435.3V69.46H442.07V67.42Z" fill="#FF15EC" />
  <path d="M455.49 65.97H450.02V67.42H455.49V65.97Z" fill="#FF15EC" />
  <path d="M474.74 70.17H468.28V71.25H474.74V70.17Z" fill="#FF15EC" />
  <path
    d="M3816.65 229.14H3363.38V218.12H3676.02V183.78H3816.65V178.27H2357.35V199.9H1936.65V178.27H1563.27V201.68H1465.98V178.27H1.65039V190.73H50.2904V225.63H1033.81V249.48H3816.65V229.14ZM3270.63 214.14H3039.46V226H2411.69V202.28H3270.63V214.14Z"
    fill="#FF15EC" />
  <path d="M517.31 58.77H478.3V63.14H517.31V58.77Z" fill="#FFF5E6" />
  <path d="M420.66 58.94H381.65V61.84H420.66V58.94Z" fill="#FFF5E6" />
  <path d="M359.72 60.39H299.99V61.84H359.72V60.39Z" fill="#FFF5E6" />
  <path d="M288.24 60.39H256.13V61.84H288.24V60.39Z" fill="#FFF5E6" />
  <path d="M552.79 58.77H532.22V61.12H552.79V58.77Z" fill="#FFF5E6" />
  <path d="M460.25 58.37H447.93V60.79H460.25V58.37Z" fill="#FFF5E6" />
  <path d="M368.82 57.56H359.72V59.34H368.82V57.56Z" fill="#FFF5E6" />
  <path d="M245.46 59.76H239V61.03H245.46V59.76Z" fill="#FFF5E6" />
  <path d="M231.81 60.58H225.35V61.85H231.81V60.58Z" fill="#FFF5E6" />
  <path d="M309.26 66.13H270.25V70.5H309.26V66.13Z" fill="#FFF5E6" />
  <path d="M212.61 66.3H173.6V69.2H212.61V66.3Z" fill="#FFF5E6" />
  <path d="M151.67 67.75H91.9404V69.2H151.67V67.75Z" fill="#FFF5E6" />
  <path d="M424 67.75H364.27V69.2H424V67.75Z" fill="#FFF5E6" />
  <path d="M80.1901 67.75H48.0801V69.2H80.1901V67.75Z" fill="#FFF5E6" />
  <path d="M344.74 66.13H324.17V68.48H344.74V66.13Z" fill="#FFF5E6" />
  <path d="M252.2 65.73H239.88V68.15H252.2V65.73Z" fill="#FFF5E6" />
  <path d="M160.77 64.92H151.67V66.7H160.77V64.92Z" fill="#FFF5E6" />
  <path d="M37.4102 67.12H30.9502V68.39H37.4102V67.12Z" fill="#FFF5E6" />
  <path d="M23.7598 176.94H17.2998V178.21H23.7598V176.94Z" fill="#FFF5E6" />
  <path d="M1057.95 -7.78998H1034.54V1.66003H1057.95V-7.78998Z" fill="#FFF5E6" />
  <path d="M1087.1 -3.06H1073.08V2.6H1087.1V-3.06Z" fill="#FFF5E6" />
  <path d="M3522.24 13.97H3477.85V28.95H3522.24V13.97Z" fill="#FFF5E6" />
  <path d="M3565.31 19.5H3541.9V28.95H3565.31V19.5Z" fill="#FFF5E6" />
  <path d="M3580.44 13.03H3566.42V18.69H3580.44V13.03Z" fill="#FFF5E6" />
  <path d="M3387.08 13.97V21.46H3342.69V13.97H3241.97V28.95H3443.4V13.97H3387.08Z" fill="#FFF5E6" />
  <path d="M3175.13 25.21V27.08H3108.86V25.21H2958.51V28.95H3259.2V25.21H3175.13Z" fill="#FFF5E6" />
  <path d="M1667.76 43.07H1395.74V49.7H1667.76V43.07Z" fill="#FFF5E6" />
  <path d="M959.62 79.03V75.18H778.22V81.81H1050.24V79.03H959.62Z" fill="#FFF5E6" />
  <path d="M1155.5 91.1V88.69H1626.5V92.98H919.5V91.1H1155.5Z" fill="#FFF5E6" />
  <path d="M606.06 46.25V42.4H0.769531V49.03H908.45V46.25H606.06Z" fill="#FFF5E6" />
  <path d="M1695.55 43.07V53.86H1872.8V47.23H2144.82V53.86H2929.8V43.07H1695.55Z" fill="#FFF5E6" />
  <path d="M2103.43 168.25V172.16H1926.18V169.76H1654.16V172.16H869.18V168.25H2103.43Z"
    fill="#FFF5E6" />
  <path
    d="M1893.7 78.5H2159.61V76.1H2005.59V68.62H1318.39V67.42H2005.59H2036.32H2655.23V72.13H2862.49V67.42H3046.43V72.52H3094.36V67.42H3618.87H3791.81H3815.77V70.13H3791.81V77.74H3307.27V82.94H2898.7H2005.59H1261.4V80.72H1112.47V78.5H1893.7Z"
    fill="#FFF5E6" />
  <path
    d="M1922.07 158.31H1656.16V155.91H1810.19V148.43H2497.38V147.23H1810.19H1779.45H1160.54V151.94H953.28V147.23H769.34V152.33H721.41V147.23H196.9H23.96H0V149.94H23.96V157.55H508.5V162.75H917.08H1810.19H2554.37V160.53H2703.3V158.31H1922.07Z"
    fill="#FFF5E6" />
  <path
    d="M1967.02 22.21H1695V15.58H1852.56V-5.07001H2555.55V-8.38H1187.99V4.62999H975.969V-8.38H787.799V5.69999H738.77V-8.38H0.769531V-0.890007H25.2895V20.1H520.96V34.44H2613.86V28.32H2766.2V22.2H1967.02V22.21ZM1648.26 13.19H1531.76V20.33H1215.38V6.05999H1648.26V13.2V13.19Z"
    fill="#FFF5E6" />
  <path d="M3252.04 111.97H3296.43V109.31H3252.04V111.97Z" fill="#FFF5E6" />
  <path d="M3208.98 111.97H3232.39V110.29H3208.98V111.97Z" fill="#FFF5E6" />
  <path d="M3193.85 110.16H3207.87V109.16H3193.85V110.16Z" fill="#FFF5E6" />
  <path d="M2758.59 120.17H2782V118.49H2758.59V120.17Z" fill="#FFF5E6" />
  <path d="M2729.44 120.34H2743.46V119.34H2729.44V120.34Z" fill="#FFF5E6" />
  <path d="M1836.33 113.95H1859.74V112.27H1836.33V113.95Z" fill="#FFF5E6" />
  <path d="M1668.29 117.05H1679.08V116.28H1668.29V117.05Z" fill="#FFF5E6" />
  <path d="M2450.87 111H2464.89V110H2450.87V111Z" fill="#FFF5E6" />
  <path d="M2475.17 110.55H2489.19V110H2475.17V110.55Z" fill="#FFF5E6" />
  <path d="M3387.21 109.32V110.65H3431.6V109.32H3532.31V111.97H3330.89V109.32H3387.21Z"
    fill="#FFF5E6" />
  <path d="M3599.16 111.31V111.64H3665.43V111.31H3815.77V111.97H3515.08V111.31H3599.16Z"
    fill="#FFF5E6" />
  <path d="M294.3 125.01H338.69V122.35H294.3V125.01Z" fill="#FFF5E6" />
  <path d="M251.23 125.01H274.64V123.33H251.23V125.01Z" fill="#FFF5E6" />
  <path d="M236.11 123.19H250.13V122.19H236.11V123.19Z" fill="#FFF5E6" />
  <path d="M429.46 122.35V123.68H473.86V122.35H574.57V125.01H373.15V122.35H429.46Z" fill="#FFF5E6" />
  <path d="M641.42 124.34V124.68H707.69V124.34H858.03V125.01H557.34V124.34H641.42Z" fill="#FFF5E6" />
  <path d="M2148.78 128.68L2420.8 128.68V127.51L2148.78 127.51V128.68Z" fill="#FFF5E6" />
  <path d="M2116.32 118.03L2388.34 118.03V117.75L2116.32 117.75V118.03Z" fill="#FFF5E6" />
  <path d="M1307.3 116.28V115.69H1579.32V116.28H1662.51V117H877.22V117.45H839.46V116.28H1307.3Z"
    fill="#FFF5E6" />
  <path d="M2856.92 133.88V133.2H3038.32V134.37H2766.3V133.88H2856.92Z" fill="#FFF5E6" />
  <path d="M3210.49 128.07V127.39H3815.77V128.57H2908.09V128.07H3210.49Z" fill="#FFF5E6" />
  <path d="M2120.99 127.51V129.42H1943.75V128.25H1671.72V129.42H886.74V127.51H2120.99Z"
    fill="#FFF5E6" />
  <path d="M1211 118.39H1166.61V119.35H1211V118.39Z" fill="#FFF5E6" />
  <path d="M2363.17 118.94H2091.15V119.37H2363.17V118.94Z" fill="#FFF5E6" />
  <path d="M1722.83 107.95V108.65H1900.08V108.22H2172.1V108.65H2957.08V107.95H1722.83Z"
    fill="#FFF5E6" />
  <path
    d="M1922.85 133.79H1656.93V133.36H1810.96V132.04H2498.15V131.82H1810.96H1780.22H1161.31V132.66H954.049V131.82H770.109V132.73H722.18V131.82H197.67H24.7395H0.769531V132.31H24.7395V133.65H509.27V134.57H917.849H1810.96H2555.15V134.18H2704.07V133.79H1922.85Z"
    fill="#FFF5E6" />
  <path
    d="M1047.34 118.39V118.87H1091.74V118.39H1132.15V119.35H938.49V118.87H562.08V119.35H429.39V118.39H1047.34Z"
    fill="#FFF5E6" />
  <path
    d="M531.43 115.42H712.06V114.25H607.44V110.59H140.65V110H607.44H628.32H1048.72V112.31H1189.51V110H1314.46V112.5H1347.01V110H1703.3H1820.77H1825.07H1837.05H2434.64V110.76H1837.05V111.33H1820.77V115.05H1715.52V112.09H1405.43V114.05H827.669V117.59H607.44H101.93V116.51H0.769531V115.42H531.43Z"
    fill="#FFF5E6" />
  <path
    d="M1050.35 123.81V124.89H1202.69V125.97H1963.98H2877.62H3295.59V123.43H3791.26V119.71H3815.78V118.38H3791.26H3614.35H3077.79V120.88H3028.76V118.38H2840.59V120.69H2628.57V118.38H1995.44H1964H1261.01V118.97H1964V122.63H2121.56V123.8H1849.54H1050.36L1050.35 123.81ZM2168.29 120.95H2284.79H2601.17V123.48H2284.79V122.22H2168.29V120.96V120.95Z"
    fill="#FFF5E6" />
  <path d="M441.19 67.75H434.42V69.79H441.19V67.75Z" fill="#FFF5E6" />
  <path d="M454.61 66.3H449.14V67.75H454.61V66.3Z" fill="#FFF5E6" />
  <path d="M473.86 70.5H467.4V71.58H473.86V70.5Z" fill="#FFF5E6" />
  <path
    d="M3815.77 229.47H3362.5V218.45H3675.14V184.11H3815.77V178.6H2356.47V200.23H1935.77V178.6H1562.39V202.01H1465.1V178.6H0.769531V191.06H49.4095V225.96H1032.93V249.81H3815.77V229.47ZM3269.75 214.47H3038.58V226.33H2410.81V202.61H3269.75V214.47Z"
    fill="#FFF5E6" />
  <path d="M520.37 59.53H481.36V63.9H520.37V59.53Z" fill="#000013" />
  <path d="M423.72 59.7H384.71V62.6H423.72V59.7Z" fill="#000013" />
  <path d="M362.78 61.15H303.05V62.6H362.78V61.15Z" fill="#000013" />
  <path d="M291.3 61.15H259.19V62.6H291.3V61.15Z" fill="#000013" />
  <path d="M555.85 59.53H535.28V61.88H555.85V59.53Z" fill="#000013" />
  <path d="M463.3 59.13H450.98V61.55H463.3V59.13Z" fill="#000013" />
  <path d="M371.88 58.32H362.78V60.1H371.88V58.32Z" fill="#000013" />
  <path d="M248.52 60.51H242.06V61.78H248.52V60.51Z" fill="#000013" />
  <path d="M234.87 61.33H228.41V62.6H234.87V61.33Z" fill="#000013" />
  <path d="M312.32 66.89H273.31V71.26H312.32V66.89Z" fill="#000013" />
  <path d="M215.67 67.06H176.66V69.96H215.67V67.06Z" fill="#000013" />
  <path d="M154.73 68.51H95V69.96H154.73V68.51Z" fill="#000013" />
  <path d="M427.05 68.51H367.32V69.96H427.05V68.51Z" fill="#000013" />
  <path d="M83.2496 68.51H51.1396V69.96H83.2496V68.51Z" fill="#000013" />
  <path d="M347.8 66.89H327.23V69.24H347.8V66.89Z" fill="#000013" />
  <path d="M255.25 66.49H242.93V68.91H255.25V66.49Z" fill="#000013" />
  <path d="M163.83 65.68H154.73V67.46H163.83V65.68Z" fill="#000013" />
  <path d="M40.4698 67.87H34.0098V69.14H40.4698V67.87Z" fill="#000013" />
  <path d="M26.8204 177.69H20.3604V178.96H26.8204V177.69Z" fill="#000013" />
  <path d="M1061.01 -7.03003H1037.6V2.41997H1061.01V-7.03003Z" fill="#000013" />
  <path d="M1090.16 -2.31H1076.14V3.35H1090.16V-2.31Z" fill="#000013" />
  <path d="M3525.3 14.73H3480.91V29.71H3525.3V14.73Z" fill="#000013" />
  <path d="M3568.37 20.26H3544.96V29.71H3568.37V20.26Z" fill="#000013" />
  <path d="M3583.49 13.79H3569.47V19.45H3583.49V13.79Z" fill="#000013" />
  <path d="M3390.13 14.73V22.22H3345.74V14.73H3245.03V29.71H3446.45V14.73H3390.13Z" fill="#000013" />
  <path d="M3178.18 25.96V27.84H3111.91V25.96H2961.57V29.71H3262.26V25.96H3178.18Z" fill="#000013" />
  <path d="M1670.82 43.83H1398.8V50.46H1670.82V43.83Z" fill="#000013" />
  <path d="M962.669 79.78V75.93H781.27V82.56H1053.3V79.78H962.669Z" fill="#000013" />
  <path d="M1158.56 91.86V89.45H1629.56V93.74H922.56V91.86H1158.56Z" fill="#000013" />
  <path d="M609.11 47.01V43.16H3.83008V49.79H911.51V47.01H609.11Z" fill="#000013" />
  <path d="M1698.6 43.83V54.62H1875.85V47.99H2147.87V54.62H2932.86V43.83H1698.6Z" fill="#000013" />
  <path d="M2106.48 169.01V172.92H1929.24V170.51H1657.21V172.92H872.23V169.01H2106.48Z"
    fill="#000013" />
  <path
    d="M1896.75 79.26H2162.66V76.86H2008.64V69.37H1321.45V68.17H2008.64H2039.38H2658.28V72.89H2865.54V68.17H3049.49V73.28H3097.42V68.17H3621.93H3794.86H3818.83V70.89H3794.86V78.5H3310.33V83.7H2901.75H2008.64H1264.45V81.48H1115.53V79.26H1896.75Z"
    fill="#000013" />
  <path
    d="M1925.13 159.07H1659.22V156.67H1813.24V149.18H2500.43V147.98H1813.24H1782.5H1163.6V152.7H956.34V147.98H772.39V153.08H724.46V147.98H199.95H27.0196H3.05957V150.7H27.0196V158.3H511.55V163.5H920.13H1813.24H2557.43V161.29H2706.35V159.07H1925.13Z"
    fill="#000013" />
  <path
    d="M1970.07 22.97H1698.05V16.34H1855.61V-4.30999H2558.6V-7.62H1191.04V5.39001H979.02V-7.62H790.85V6.46001H741.82V-7.62H3.83008V-0.12999H28.3501V20.86H524.02V35.2H2616.92V29.08H2769.26V22.96H1970.08L1970.07 22.97ZM1651.31 13.95H1534.81V21.09H1218.43V6.82001H1651.31V13.96V13.95Z"
    fill="#000013" />
  <path d="M3255.1 112.73H3299.49V110.07H3255.1V112.73Z" fill="#000013" />
  <path d="M3212.03 112.73H3235.44V111.05H3212.03V112.73Z" fill="#000013" />
  <path d="M3196.9 110.91H3210.92V109.91H3196.9V110.91Z" fill="#000013" />
  <path d="M2761.65 120.93H2785.06V119.25H2761.65V120.93Z" fill="#000013" />
  <path d="M2732.49 121.09H2746.51V120.09H2732.49V121.09Z" fill="#000013" />
  <path d="M1839.39 114.7H1862.8V113.02H1839.39V114.7Z" fill="#000013" />
  <path d="M1671.35 117.81H1682.14V117.04H1671.35V117.81Z" fill="#000013" />
  <path d="M2453.93 111.76H2467.95V110.76H2453.93V111.76Z" fill="#000013" />
  <path d="M2478.22 111.3H2492.24V110.75H2478.22V111.3Z" fill="#000013" />
  <path d="M3390.26 110.07V111.4H3434.65V110.07H3535.37V112.73H3333.94V110.07H3390.26Z"
    fill="#000013" />
  <path d="M3602.21 112.07V112.4H3668.48V112.07H3818.83V112.73H3518.14V112.07H3602.21Z"
    fill="#000013" />
  <path d="M297.36 125.76H341.75V123.1H297.36V125.76Z" fill="#000013" />
  <path d="M254.28 125.76H277.69V124.08H254.28V125.76Z" fill="#000013" />
  <path d="M239.16 123.95H253.18V122.95H239.16V123.95Z" fill="#000013" />
  <path d="M432.52 123.11V124.44H476.91V123.11H577.62V125.76H376.2V123.11H432.52Z" fill="#000013" />
  <path d="M644.47 125.1V125.43H710.74V125.1H861.08V125.76H560.4V125.1H644.47Z" fill="#000013" />
  <path d="M2151.84 129.44L2423.86 129.44V128.27L2151.84 128.27V129.44Z" fill="#000013" />
  <path d="M2119.37 118.79L2391.39 118.79V118.51L2119.37 118.51V118.79Z" fill="#000013" />
  <path
    d="M1310.35 117.04V116.45H1582.38V117.04H1665.57V117.76H880.28V118.21H842.51V117.04H1310.35Z"
    fill="#000013" />
  <path d="M2859.98 134.64V133.96H3041.38V135.13H2769.36V134.64H2859.98Z" fill="#000013" />
  <path d="M3213.54 128.83V128.15H3818.83V129.32H2911.15V128.83H3213.54Z" fill="#000013" />
  <path d="M2124.05 128.27V130.18H1946.8V129H1674.78V130.18H889.8V128.27H2124.05Z" fill="#000013" />
  <path d="M1214.05 119.15H1169.66V120.11H1214.05V119.15Z" fill="#000013" />
  <path d="M2366.23 119.7H2094.21V120.13H2366.23V119.7Z" fill="#000013" />
  <path d="M1725.89 108.71V109.4H1903.13V108.98H2175.16V109.4H2960.14V108.71H1725.89Z"
    fill="#000013" />
  <path
    d="M1925.9 134.55H1659.99V134.12H1814.01V132.79H2501.2V132.58H1814.01H1783.27H1164.37V133.42H957.11V132.58H773.16V133.48H725.23V132.58H200.72H27.7901H3.83008V133.06H27.7901V134.41H512.32V135.33H920.9H1814.01H2558.2V134.94H2707.12V134.55H1925.9Z"
    fill="#000013" />
  <path
    d="M1050.4 119.15V119.63H1094.79V119.15H1135.21V120.11H941.55V119.63H565.14V120.11H432.45V119.15H1050.4Z"
    fill="#000013" />
  <path
    d="M534.49 116.18H715.12V115H610.49V111.34H143.7V110.76H610.49H631.37H1051.78V113.06H1192.56V110.76H1317.51V113.25H1350.07V110.76H1706.35H1823.82H1828.12H1840.1H2437.69V111.52H1840.1V112.08H1823.82V115.8H1718.57V112.85H1408.49V114.81H830.72V118.35H610.49H104.98V117.26H3.83008V116.18H534.49Z"
    fill="#000013" />
  <path
    d="M1053.4 124.57V125.65H1205.74V126.73H1967.03H2880.67H3298.64V124.19H3794.31V120.47H3818.83V119.14H3794.31H3617.4H3080.84V121.64H3031.81V119.14H2843.64V121.45H2631.62V119.14H1998.49H1967.05H1264.06V119.73H1967.05V123.39H2124.61V124.56H1852.59H1053.41L1053.4 124.57ZM2171.34 121.71H2287.84H2604.22V124.24H2287.84V122.98H2171.34V121.72V121.71Z"
    fill="#000013" />
  <path d="M444.24 68.51H437.47V70.55H444.24V68.51Z" fill="#000013" />
  <path d="M457.66 67.06H452.19V68.51H457.66V67.06Z" fill="#000013" />
  <path d="M476.91 71.26H470.45V72.34H476.91V71.26Z" fill="#000013" />
  <path
    d="M3818.83 230.23H3365.56V219.21H3678.2V184.87H3818.83V179.36H2359.53V200.99H1938.83V179.36H1565.45V202.77H1468.16V179.36H3.83008V191.82H52.4701V226.72H1035.99V250.57H3818.83V230.23ZM3272.81 215.23H3041.64V227.09H2413.87V203.37H3272.81V215.23Z"
    fill="#000013" />
</svg>